<?xml version="1.0" encoding="iso-8859-1"?>
<!-- Uploaded to: SVG Repo, www.svgrepo.com, Generator: SVG Repo Mixer Tools -->
<svg height="800px" width="800px" version="1.1" id="Layer_1" xmlns="http://www.w3.org/2000/svg" xmlns:xlink="http://www.w3.org/1999/xlink" 
	 viewBox="0 0 511.999 511.999" xml:space="preserve">
<circle style="fill:rgba(33, 43, 67, 0.5)
;" cx="255.997" cy="255.997" r="167.991"/>
<g>
	<path style="fill:rgba(255, 198, 27, 0.9);" d="M255.999,0c-7.663,0-13.877,6.213-13.877,13.877s6.214,13.877,13.877,13.877
		c57.945,0,110.905,21.716,151.199,57.422l-32.782,32.781c-32.95-28.356-74.49-43.824-118.416-43.824
		c-45.157,0-86.517,16.549-118.35,43.892L95.044,75.42c-0.074-0.074-0.155-0.136-0.23-0.208c-0.072-0.075-0.135-0.157-0.208-0.23
		c-5.42-5.419-14.204-5.419-19.626,0C26.628,123.334,0,187.622,0,255.999c0,141.159,114.842,255.999,255.999,255.999
		c68.38,0,132.668-26.628,181.02-74.981s74.98-112.64,74.98-181.018C512,114.842,397.158,0,255.999,0z M365.043,147.093
		c5.415,5.423,14.2,5.427,19.624,0.011c0.402-0.402,0.766-0.828,1.109-1.264c0.029-0.029,0.061-0.053,0.09-0.082l40.958-40.957
		c32.834,37.053,53.823,84.82,56.987,137.322h-15.439c-7.663,0-13.877,6.213-13.877,13.877s6.214,13.877,13.877,13.877h15.445
		c-3.047,51.144-22.905,99.081-56.914,137.401l-32.929-32.929c27.344-31.833,43.892-73.192,43.892-118.35
		c0-7.664-6.214-13.877-13.877-13.877s-13.877,6.213-13.877,13.877c0,84.978-69.135,154.114-154.114,154.114
		s-154.114-69.135-154.114-154.114s69.135-154.114,154.114-154.114C297.201,101.887,335.926,117.942,365.043,147.093z
		 M255.999,453.157c-7.663,0-13.877,6.213-13.877,13.877v16.777c-52.502-3.165-100.27-24.154-137.322-56.987l32.85-32.849
		c31.833,27.344,73.192,43.892,118.35,43.892s86.517-16.549,118.35-43.892l32.929,32.929
		c-38.319,34.009-86.257,53.866-137.402,56.914v-16.782C269.876,459.37,263.663,453.157,255.999,453.157z M28.188,269.876h46.47
		c3.011,39.73,18.85,75.932,43.367,104.473l-32.85,32.85C52.341,370.146,31.353,322.38,28.188,269.876z M85.096,104.722
		l32.929,32.929c-24.516,28.542-40.355,64.743-43.367,104.473H28.182C31.229,190.98,51.087,143.042,85.096,104.722z"/>
	<path style="fill:#FFC61B;" d="M250.558,343.582c-15.182,0-27.534-10.602-27.534-23.635V231.46c0-3.043,2.94-5.519,6.555-5.519
		h13.088c3.615,0,6.555,2.476,6.555,5.519v80.955c0,4.865,4.511,8.824,10.056,8.824h43.247V173.938c0-3.043,2.94-5.519,6.554-5.519
		h13.09c3.615,0,6.555,2.476,6.555,5.519V334.87c0,4.804-4.599,8.712-10.253,8.712H250.558z"/>
	<path style="fill:#FFC61B;" d="M189.83,343.582c-3.615,0-6.555-2.476-6.555-5.519V177.13c0-4.804,4.599-8.712,10.253-8.712h67.914
		c15.182,0,27.534,10.602,27.534,23.635v88.487c0,3.042-2.94,5.517-6.555,5.517h-13.088c-3.615,0-6.557-2.476-6.557-5.517v-80.955
		c0-4.865-4.511-8.824-10.055-8.824h-43.247v147.301c0,3.043-2.94,5.519-6.554,5.519h-13.09V343.582z"/>
</g>
</svg>